<svg width="24" height="25" viewBox="0 0 24 25" fill="none" xmlns="http://www.w3.org/2000/svg">
<path d="M5 9.91646V17.9165M9.5 9.91646V17.9165M14.5 9.91646V17.9165M19 9.91646V17.9165M3 19.5165L3 20.3165C3 20.8765 3 21.1565 3.10899 21.3705C3.20487 21.5586 3.35785 21.7116 3.54601 21.8075C3.75992 21.9165 4.03995 21.9165 4.6 21.9165H19.4C19.9601 21.9165 20.2401 21.9165 20.454 21.8075C20.6422 21.7116 20.7951 21.5586 20.891 21.3705C21 21.1565 21 20.8765 21 20.3165V19.5165C21 18.9564 21 18.6764 20.891 18.4625C20.7951 18.2743 20.6422 18.1213 20.454 18.0255C20.2401 17.9165 19.9601 17.9165 19.4 17.9165H4.6C4.03995 17.9165 3.75992 17.9165 3.54601 18.0255C3.35785 18.1213 3.20487 18.2743 3.10899 18.4625C3 18.6764 3 18.9564 3 19.5165ZM11.6529 3.99359L4.25291 5.63804C3.80585 5.73738 3.58232 5.78706 3.41546 5.90727C3.26829 6.0133 3.15273 6.15736 3.08115 6.32403C3 6.51299 3 6.74197 3 7.19994L3 8.31646C3 8.87651 3 9.15654 3.10899 9.37045C3.20487 9.55861 3.35785 9.7116 3.54601 9.80747C3.75992 9.91646 4.03995 9.91646 4.6 9.91646H19.4C19.9601 9.91646 20.2401 9.91646 20.454 9.80747C20.6422 9.7116 20.7951 9.55862 20.891 9.37045C21 9.15654 21 8.87652 21 8.31646V7.19994C21 6.74197 21 6.51299 20.9188 6.32403C20.8473 6.15736 20.7317 6.0133 20.5845 5.90727C20.4177 5.78706 20.1942 5.73739 19.7471 5.63804L12.3471 3.99359C12.2176 3.96481 12.1528 3.95042 12.0874 3.94468C12.0292 3.93958 11.9708 3.93958 11.9126 3.94468C11.8472 3.95042 11.7824 3.96481 11.6529 3.99359Z" stroke="#667085" stroke-width="2" stroke-linecap="round" stroke-linejoin="round"/>
</svg>
