<svg width="22" height="17" viewBox="0 0 22 17" fill="none" xmlns="http://www.w3.org/2000/svg">
<path d="M13 5.91644H10.5C9.67157 5.91644 9 6.58802 9 7.41644C9 8.24487 9.67157 8.91644 10.5 8.91644H11.5C12.3284 8.91644 13 9.58802 13 10.4164C13 11.2449 12.3284 11.9164 11.5 11.9164H9M11 4.91644V5.91644M11 11.9164V12.9164M17 8.91644H17.01M5 8.91644H5.01M1 5.11644L1 12.7164C1 13.8365 1 14.3966 1.21799 14.8244C1.40973 15.2007 1.71569 15.5067 2.09202 15.6985C2.51984 15.9164 3.07989 15.9164 4.2 15.9164L17.8 15.9164C18.9201 15.9164 19.4802 15.9164 19.908 15.6985C20.2843 15.5067 20.5903 15.2007 20.782 14.8244C21 14.3966 21 13.8365 21 12.7164V5.11644C21 3.99634 21 3.43629 20.782 3.00846C20.5903 2.63214 20.2843 2.32618 19.908 2.13443C19.4802 1.91644 18.9201 1.91644 17.8 1.91644L4.2 1.91644C3.0799 1.91644 2.51984 1.91644 2.09202 2.13443C1.7157 2.32618 1.40973 2.63214 1.21799 3.00846C1 3.43629 1 3.99634 1 5.11644ZM17.5 8.91644C17.5 9.19258 17.2761 9.41644 17 9.41644C16.7239 9.41644 16.5 9.19258 16.5 8.91644C16.5 8.6403 16.7239 8.41644 17 8.41644C17.2761 8.41644 17.5 8.6403 17.5 8.91644ZM5.5 8.91644C5.5 9.19258 5.27614 9.41644 5 9.41644C4.72386 9.41644 4.5 9.19258 4.5 8.91644C4.5 8.6403 4.72386 8.41644 5 8.41644C5.27614 8.41644 5.5 8.6403 5.5 8.91644Z" stroke="#667085" stroke-width="2" stroke-linecap="round" stroke-linejoin="round"/>
</svg>
