<svg width="24" height="25" viewBox="0 0 24 25" fill="none" xmlns="http://www.w3.org/2000/svg">
<path d="M4.00002 22.7339C4.6026 22.9164 5.41649 22.9164 6.8 22.9164H17.2C18.5835 22.9164 19.3974 22.9164 20 22.7339M4.00002 22.7339C3.87082 22.6947 3.75133 22.6472 3.63803 22.5895C3.07354 22.3018 2.6146 21.8429 2.32698 21.2784C2 20.6367 2 19.7966 2 18.1164V7.71644C2 6.03629 2 5.19621 2.32698 4.55447C2.6146 3.98999 3.07354 3.53104 3.63803 3.24342C4.27976 2.91644 5.11984 2.91644 6.8 2.91644H17.2C18.8802 2.91644 19.7202 2.91644 20.362 3.24342C20.9265 3.53104 21.3854 3.98999 21.673 4.55447C22 5.19621 22 6.03629 22 7.71644V18.1164C22 19.7966 22 20.6367 21.673 21.2784C21.3854 21.8429 20.9265 22.3018 20.362 22.5895C20.2487 22.6472 20.1292 22.6947 20 22.7339M4.00002 22.7339C4.00035 21.9245 4.00521 21.4963 4.07686 21.1361C4.39249 19.5493 5.63288 18.3089 7.21964 17.9933C7.60603 17.9164 8.07069 17.9164 9 17.9164H15C15.9293 17.9164 16.394 17.9164 16.7804 17.9933C18.3671 18.3089 19.6075 19.5493 19.9231 21.1361C19.9948 21.4963 19.9996 21.9245 20 22.7339M16 10.4164C16 12.6256 14.2091 14.4164 12 14.4164C9.79086 14.4164 8 12.6256 8 10.4164C8 8.2073 9.79086 6.41644 12 6.41644C14.2091 6.41644 16 8.2073 16 10.4164Z" stroke="#667085" stroke-width="2" stroke-linecap="round" stroke-linejoin="round"/>
</svg>
