<svg width="24" height="25" viewBox="0 0 24 25" fill="none" xmlns="http://www.w3.org/2000/svg">
<path d="M8 15.9164V17.9164M12 11.9164V17.9164M16 7.91644V17.9164M7.8 21.9164H16.2C17.8802 21.9164 18.7202 21.9164 19.362 21.5895C19.9265 21.3018 20.3854 20.8429 20.673 20.2784C21 19.6367 21 18.7966 21 17.1164V8.71644C21 7.03629 21 6.19621 20.673 5.55447C20.3854 4.98999 19.9265 4.53104 19.362 4.24342C18.7202 3.91644 17.8802 3.91644 16.2 3.91644H7.8C6.11984 3.91644 5.27976 3.91644 4.63803 4.24342C4.07354 4.53104 3.6146 4.98999 3.32698 5.55447C3 6.19621 3 7.03629 3 8.71644V17.1164C3 18.7966 3 19.6367 3.32698 20.2784C3.6146 20.8429 4.07354 21.3018 4.63803 21.5895C5.27976 21.9164 6.11984 21.9164 7.8 21.9164Z" stroke="#667085" stroke-width="2" stroke-linecap="round" stroke-linejoin="round"/>
</svg>
