<svg width="24" height="25" viewBox="0 0 24 25" fill="none" xmlns="http://www.w3.org/2000/svg">
<path d="M9 9.91644H9.01M15 15.9164H15.01M16 8.91644L8 16.9164M22 12.9164C22 18.4393 17.5228 22.9164 12 22.9164C6.47715 22.9164 2 18.4393 2 12.9164C2 7.3936 6.47715 2.91644 12 2.91644C17.5228 2.91644 22 7.3936 22 12.9164ZM9.5 9.91644C9.5 10.1926 9.27614 10.4164 9 10.4164C8.72386 10.4164 8.5 10.1926 8.5 9.91644C8.5 9.6403 8.72386 9.41644 9 9.41644C9.27614 9.41644 9.5 9.6403 9.5 9.91644ZM15.5 15.9164C15.5 16.1926 15.2761 16.4164 15 16.4164C14.7239 16.4164 14.5 16.1926 14.5 15.9164C14.5 15.6403 14.7239 15.4164 15 15.4164C15.2761 15.4164 15.5 15.6403 15.5 15.9164Z" stroke="#667085" stroke-width="2" stroke-linecap="round" stroke-linejoin="round"/>
</svg>
