<svg width="24" height="25" viewBox="0 0 24 25" fill="none" xmlns="http://www.w3.org/2000/svg">
<path d="M12 2.91644C13.3132 2.91644 14.6136 3.1751 15.8268 3.67765C17.0401 4.1802 18.1425 4.91679 19.0711 5.84538C19.9997 6.77396 20.7363 7.87636 21.2388 9.08961C21.7413 10.3029 22 11.6032 22 12.9164M12 2.91644V12.9164M12 2.91644C6.47715 2.91644 2 7.3936 2 12.9164C2 18.4393 6.47715 22.9164 12 22.9164C17.5228 22.9164 22 18.4393 22 12.9164M12 2.91644C17.5228 2.91644 22 7.3936 22 12.9164M22 12.9164L12 12.9164M22 12.9164C22 14.4946 21.6265 16.0502 20.9101 17.4563C20.1936 18.8624 19.1546 20.079 17.8779 21.0066L12 12.9164" stroke="#667085" stroke-width="2" stroke-linecap="round" stroke-linejoin="round"/>
</svg>
