<svg width="24" height="25" viewBox="0 0 24 25" fill="none" xmlns="http://www.w3.org/2000/svg">
<path d="M14 9.91644H11.5C10.6716 9.91644 10 10.588 10 11.4164C10 12.2449 10.6716 12.9164 11.5 12.9164H12.5C13.3284 12.9164 14 13.588 14 14.4164C14 15.2449 13.3284 15.9164 12.5 15.9164H10M12 8.91644V9.91644M12 15.9164V16.9164M18 12.9164H18.01M6 12.9164H6.01M2 9.11644L2 16.7164C2 17.8365 2 18.3966 2.21799 18.8244C2.40973 19.2007 2.71569 19.5067 3.09202 19.6985C3.51984 19.9164 4.07989 19.9164 5.2 19.9164L18.8 19.9164C19.9201 19.9164 20.4802 19.9164 20.908 19.6985C21.2843 19.5067 21.5903 19.2007 21.782 18.8244C22 18.3966 22 17.8365 22 16.7164V9.11644C22 7.99634 22 7.43629 21.782 7.00846C21.5903 6.63214 21.2843 6.32618 20.908 6.13443C20.4802 5.91644 19.9201 5.91644 18.8 5.91644L5.2 5.91644C4.0799 5.91644 3.51984 5.91644 3.09202 6.13443C2.7157 6.32618 2.40973 6.63214 2.21799 7.00846C2 7.43629 2 7.99634 2 9.11644ZM18.5 12.9164C18.5 13.1926 18.2761 13.4164 18 13.4164C17.7239 13.4164 17.5 13.1926 17.5 12.9164C17.5 12.6403 17.7239 12.4164 18 12.4164C18.2761 12.4164 18.5 12.6403 18.5 12.9164ZM6.5 12.9164C6.5 13.1926 6.27614 13.4164 6 13.4164C5.72386 13.4164 5.5 13.1926 5.5 12.9164C5.5 12.6403 5.72386 12.4164 6 12.4164C6.27614 12.4164 6.5 12.6403 6.5 12.9164Z" stroke="#667085" stroke-width="2" stroke-linecap="round" stroke-linejoin="round"/>
</svg>
