<svg width="24" height="25" viewBox="0 0 24 25" fill="none" xmlns="http://www.w3.org/2000/svg">
<path d="M22 21.9164V19.9164C22 18.0526 20.7252 16.4865 19 16.0425M15.5 4.2072C16.9659 4.80059 18 6.23775 18 7.91644C18 9.59513 16.9659 11.0323 15.5 11.6257M17 21.9164C17 20.0527 17 19.1208 16.6955 18.3857C16.2895 17.4056 15.5108 16.6269 14.5307 16.2209C13.7956 15.9164 12.8638 15.9164 11 15.9164H8C6.13623 15.9164 5.20435 15.9164 4.46927 16.2209C3.48915 16.6269 2.71046 17.4056 2.30448 18.3857C2 19.1208 2 20.0527 2 21.9164M13.5 7.91644C13.5 10.1256 11.7091 11.9164 9.5 11.9164C7.29086 11.9164 5.5 10.1256 5.5 7.91644C5.5 5.7073 7.29086 3.91644 9.5 3.91644C11.7091 3.91644 13.5 5.7073 13.5 7.91644Z" stroke="#667085" stroke-width="2" stroke-linecap="round" stroke-linejoin="round"/>
</svg>
