<svg width="24" height="25" viewBox="0 0 24 25" fill="none" xmlns="http://www.w3.org/2000/svg">
<path d="M21 10.9164H3M16 2.91644V6.91644M8 2.91644V6.91644M7.8 22.9164H16.2C17.8802 22.9164 18.7202 22.9164 19.362 22.5895C19.9265 22.3018 20.3854 21.8429 20.673 21.2784C21 20.6367 21 19.7966 21 18.1164V9.71644C21 8.03629 21 7.19621 20.673 6.55447C20.3854 5.98999 19.9265 5.53104 19.362 5.24342C18.7202 4.91644 17.8802 4.91644 16.2 4.91644H7.8C6.11984 4.91644 5.27976 4.91644 4.63803 5.24342C4.07354 5.53104 3.6146 5.98999 3.32698 6.55447C3 7.19621 3 8.03629 3 9.71644V18.1164C3 19.7966 3 20.6367 3.32698 21.2784C3.6146 21.8429 4.07354 22.3018 4.63803 22.5895C5.27976 22.9164 6.11984 22.9164 7.8 22.9164Z" stroke="#667085" stroke-width="2" stroke-linecap="round" stroke-linejoin="round"/>
</svg>
