<svg width="24" height="25" viewBox="0 0 24 25" fill="none" xmlns="http://www.w3.org/2000/svg">
<path d="M6.50014 17.9164H17.3294C18.2793 17.9164 18.7543 17.9164 19.1414 17.7448C19.4827 17.5935 19.7748 17.3497 19.9847 17.041C20.2228 16.6908 20.3078 16.2235 20.4777 15.2889L21.8285 7.85955C21.8874 7.53562 21.9169 7.37365 21.8714 7.24718C21.8315 7.13623 21.7536 7.04295 21.6516 6.98383C21.5353 6.91644 21.3707 6.91644 21.0414 6.91644H5.00014M2 2.91644H3.3164C3.55909 2.91644 3.68044 2.91644 3.77858 2.96077C3.86507 2.99984 3.93867 3.06272 3.99075 3.14207C4.04984 3.23209 4.06876 3.35195 4.10662 3.59167L6.89338 21.2412C6.93124 21.4809 6.95016 21.6008 7.00925 21.6908C7.06133 21.7702 7.13493 21.833 7.22142 21.8721C7.31956 21.9164 7.44091 21.9164 7.6836 21.9164H19" stroke="#667085" stroke-width="2" stroke-linecap="round" stroke-linejoin="round"/>
</svg>
