<svg width="312" height="34" viewBox="0 0 312 34" fill="none" xmlns="http://www.w3.org/2000/svg">
<path d="M45.5331 14.5025L35.4278 30.1351L39.6408 18.4641L35.5717 18.0643L35.576 17.8884L40.7312 2.10166C42.0294 2.0944 43.3902 2.38806 44.6259 2.79367C57.1343 6.89626 58.4602 24.1644 47.061 30.6076C46.8211 30.7428 45.5127 31.301 45.4604 31.3737C45.4473 31.3912 45.5403 31.6325 45.5054 31.8099C45.4662 32.0032 45.3193 32.1617 45.1638 32.2736L42.4045 33.0049C42.2373 33.1314 42.531 33.9557 41.7939 33.915C41.3258 33.8888 41.2516 33.1866 41.1702 32.8246C41.083 32.7447 39.2091 33.3843 38.8703 33.4032C38.2583 33.4381 38.1173 32.7287 38.6072 32.4786C38.9285 32.3143 40.8068 31.9698 40.8751 31.8738L40.5902 30.6439L38.1609 31.2254C37.6579 31.176 37.5852 30.4956 38.0286 30.3008C38.3368 30.1656 40.2296 29.792 40.298 29.6961C40.2427 29.2614 39.8415 28.472 40.5175 28.3498C41.1542 28.235 41.0845 28.8122 41.1775 28.8921C41.3083 29.0055 43.7841 28.1696 44.1825 28.1725C44.3511 28.1899 44.5634 28.3615 44.6622 28.4981C44.7742 28.6551 44.7916 28.8848 44.8076 28.8979C44.9457 29.023 46.4533 28.1332 46.6917 27.9835C49.1792 26.4207 51.2217 23.9201 52.2249 21.1565C54.5916 14.6406 51.8003 7.46906 45.7889 4.17477L40.4433 14.501H45.5331V14.5025Z" fill="#233D6D"/>
<path d="M34.9989 1.9316C34.8928 2.10024 35.435 2.8882 35.5397 3.09173C35.8377 3.11208 37.4006 1.95195 37.8018 1.94178C38.158 1.93306 38.3731 2.39245 38.2234 2.72246C38.0998 2.99432 36.3611 3.73721 36.0078 3.96109C36.2186 4.39287 36.7493 5.07034 36.0791 5.37563C35.4946 5.64167 35.4278 5.03399 35.3507 4.97875C35.1806 4.85663 32.9956 6.33223 32.5478 6.35403C32.0419 6.37875 31.8718 5.83794 31.8267 5.84957C31.738 5.87283 30.6622 6.67096 30.5154 6.79598C22.9702 13.1985 24.6116 25.0948 33.1322 29.7731C33.6658 30.0668 34.2226 30.282 34.775 30.532C34.8259 30.5553 34.9931 30.5727 34.8797 30.6454C29.034 29.1567 24.7162 23.8489 24.0838 17.8826C23.5561 12.9004 25.5478 7.99536 29.271 4.7127C29.4948 4.51499 30.5285 3.81717 30.5939 3.67034C30.623 3.60491 30.3337 3.13534 30.5503 2.7559C30.8294 2.26888 32.7979 1.65393 33.2354 1.15092C33.0159 0.844167 33.1075 0.330979 33.5015 0.253928C34.2197 0.11291 34.099 0.748217 34.5162 1.10585C34.6631 1.11748 36.175 0.130356 36.553 0.0271365C37.1578 -0.137142 37.4892 0.480719 36.9906 0.905226C36.726 1.13056 35.0585 1.83565 34.9989 1.93015V1.9316Z" fill="#0BA5EC"/>
<path d="M200.015 10.7317C200.015 10.139 200.041 9.77021 200.094 9.62533L200.114 9.60557C200.14 9.57923 200.193 9.5463 200.272 9.50678C200.351 9.46727 200.45 9.42775 200.568 9.38824C200.7 9.34873 200.897 9.3158 201.161 9.28945C201.424 9.26311 201.721 9.24994 202.05 9.24994C203.604 9.24994 204.612 9.44751 205.073 9.84266C205.139 9.97437 205.172 10.6922 205.172 11.9962C205.172 12.5494 205.158 13.0763 205.132 13.5768C205.119 14.0641 205.112 14.321 205.112 14.3473C205.666 14.1892 206.179 14.1102 206.653 14.1102C207.984 14.1102 209.037 14.6305 209.815 15.671C210.605 16.6984 211 17.8773 211 19.2076C211 19.9715 210.868 20.7421 210.605 21.5192C210.355 22.2963 209.953 22.968 209.4 23.5344C208.846 24.1008 208.221 24.384 207.523 24.384C207.088 24.384 206.548 24.2193 205.903 23.8901C205.27 23.5476 204.849 23.3434 204.638 23.2776C204.651 23.2907 204.658 23.35 204.658 23.4554C204.658 23.6661 204.625 23.8966 204.559 24.1469C204.296 24.1996 203.538 24.2259 202.287 24.2259C201.115 24.2259 200.404 24.0218 200.153 23.6135C200.114 23.4554 200.094 23.0866 200.094 22.507C200.094 21.4665 200.147 20.9067 200.252 20.8277C200.463 20.696 200.944 20.6301 201.694 20.6301C202.076 20.6301 202.313 20.6565 202.406 20.7091C202.392 20.2086 202.386 19.471 202.386 18.4963C202.386 17.8904 202.386 17.245 202.386 16.5601C202.399 15.862 202.412 15.0915 202.425 14.2485C202.439 13.4055 202.445 12.7206 202.445 12.1938C202.392 12.2069 202.287 12.2135 202.129 12.2135C201.181 12.2135 200.502 12.095 200.094 11.8579C200.041 11.713 200.015 11.3376 200.015 10.7317ZM204.915 21.0055C204.915 21.124 205.106 21.2755 205.488 21.4599C205.87 21.6311 206.219 21.7168 206.535 21.7168C207.049 21.7168 207.51 21.4665 207.918 20.966C208.326 20.4655 208.53 19.8135 208.53 19.01C208.53 18.3514 208.385 17.7192 208.096 17.1133C207.819 16.4943 207.371 16.165 206.752 16.1255C206.278 16.1255 205.87 16.244 205.527 16.4811C205.198 16.705 205.027 16.9421 205.014 17.1923C205 17.3636 204.987 17.6073 204.974 17.9234C204.974 18.2395 204.967 18.6939 204.954 19.2866C204.941 19.8793 204.928 20.4523 204.915 21.0055Z" fill="black"/>
<path d="M185.857 16.4218C185.857 15.513 185.923 14.9532 186.054 14.7424C187.042 14.479 187.898 14.3473 188.623 14.3473C189.136 14.3473 189.729 14.4658 190.401 14.7029C190.493 14.7688 190.592 15.0059 190.697 15.4142C190.803 15.8093 190.855 16.1518 190.855 16.4416C190.855 16.8762 190.737 17.2516 190.5 17.5677C190.355 17.6599 190.164 17.706 189.927 17.706C189.742 17.706 189.565 17.6731 189.393 17.6072C189.393 17.6468 189.387 17.818 189.374 18.1209C189.374 18.4239 189.374 18.6149 189.374 18.6939C189.374 19.5237 189.597 20.2547 190.045 20.8869C190.506 21.506 191.079 21.8155 191.764 21.8155C192.357 21.8155 192.897 21.5785 193.384 21.1043C193.885 20.6169 194.135 19.8596 194.135 18.8322C194.135 18.4634 194.115 17.9826 194.076 17.3899C193.918 17.4821 193.714 17.5282 193.463 17.5282C193.226 17.5282 193.081 17.4953 193.029 17.4294C192.897 17.4294 192.831 17.166 192.831 16.6391C192.831 16.5206 192.897 15.9806 193.029 15.019C193.977 14.558 195.202 14.3275 196.704 14.3275C197.836 14.3275 198.561 14.5185 198.877 14.9005C198.995 15.0586 199.055 15.3352 199.055 15.7303C199.055 16.5469 198.877 17.054 198.521 17.2516C198.047 17.3702 197.652 17.4294 197.336 17.4294C197.151 17.4294 196.993 17.4163 196.862 17.3899C196.862 17.7719 196.875 18.391 196.901 19.2471C196.927 20.0901 196.941 20.7289 196.941 21.1636C196.993 21.1636 197.211 21.1504 197.593 21.124C197.975 21.0845 198.198 21.0648 198.264 21.0648C198.317 21.0648 198.396 21.0779 198.501 21.1043C198.607 21.1306 198.686 21.1438 198.739 21.1438C198.791 21.1965 198.818 21.3348 198.818 21.5587C198.818 21.9143 198.765 22.3622 198.659 22.9022C198.554 23.429 198.455 23.7517 198.363 23.8703C197.968 24.1074 197.217 24.2259 196.111 24.2259C195.4 24.2259 194.925 24.1798 194.688 24.0876C194.451 23.9954 194.333 23.7913 194.333 23.4751C194.333 23.08 194.366 22.6849 194.431 22.2897C193.193 23.7122 191.856 24.4235 190.421 24.4235C188.155 24.4235 187.022 22.8297 187.022 19.6422C187.022 19.01 187.062 18.391 187.141 17.7851C187.128 17.7982 187.069 17.8048 186.963 17.8048C186.766 17.8048 186.456 17.7719 186.035 17.706C185.916 17.5743 185.857 17.1462 185.857 16.4218Z" fill="black"/>
<path d="M171.746 22.5268C171.746 21.8946 171.785 21.5389 171.865 21.4599C172.023 21.3677 172.187 21.3084 172.358 21.2821C172.596 21.2426 172.747 21.2228 172.813 21.2228C172.655 19.9057 172.576 18.5819 172.576 17.2516C172.576 15.974 172.655 14.7029 172.813 13.4385C172.747 13.4385 172.596 13.4187 172.358 13.3792C172.174 13.3397 172.009 13.2804 171.865 13.2014C171.785 13.1224 171.746 12.7667 171.746 12.1345C171.746 11.4496 171.785 11.061 171.865 10.9688C172.352 10.6 173.208 10.4156 174.433 10.4156C175.223 10.4156 175.77 10.4815 176.073 10.6132C176.152 10.7449 176.244 11.0808 176.349 11.6208C176.468 12.1477 176.527 12.5494 176.527 12.826C176.527 12.9972 176.507 13.1092 176.468 13.1619C176.178 13.3068 175.928 13.3792 175.717 13.3792C175.572 13.3792 175.46 13.3726 175.381 13.3594C175.526 14.2815 175.605 15.1705 175.618 16.0267C176 15.8554 176.745 15.7698 177.851 15.7698C178.944 15.7698 179.827 15.8686 180.498 16.0662C180.538 15.052 180.61 14.1761 180.716 13.4385C180.65 13.4385 180.498 13.4187 180.261 13.3792C180.077 13.3397 179.912 13.2804 179.767 13.2014C179.688 13.1224 179.649 12.7667 179.649 12.1345C179.649 11.4496 179.688 11.061 179.767 10.9688C179.754 10.8108 179.965 10.679 180.4 10.5737C180.834 10.4683 181.381 10.4156 182.039 10.4156C182.896 10.4156 183.607 10.4815 184.173 10.6132C184.252 10.7449 184.345 11.0808 184.45 11.6208C184.568 12.1477 184.628 12.5494 184.628 12.826C184.628 12.9972 184.608 13.1092 184.568 13.1619C184.279 13.3068 183.963 13.3792 183.62 13.3792C183.475 13.3792 183.363 13.3726 183.284 13.3594C183.442 14.4263 183.521 15.5854 183.521 16.8367C183.521 17.8641 183.442 19.3525 183.284 21.3019C183.363 21.2887 183.475 21.2821 183.62 21.2821C183.831 21.2821 184.081 21.3545 184.371 21.4994C184.41 21.5521 184.43 21.6641 184.43 21.8353C184.43 22.1119 184.371 22.5202 184.252 23.0603C184.147 23.5871 184.055 23.9164 183.976 24.0481C183.739 24.1667 183.311 24.2259 182.691 24.2259C181.993 24.2259 181.328 24.1732 180.696 24.0679C180.064 23.9625 179.754 23.8374 179.767 23.6925C179.688 23.6003 179.649 23.2117 179.649 22.5268C179.649 21.8946 179.688 21.5389 179.767 21.4599C179.925 21.3677 180.09 21.3084 180.261 21.2821C180.498 21.2426 180.65 21.2228 180.716 21.2228C180.597 20.2877 180.525 19.2273 180.498 18.0419C179.708 18.1473 178.839 18.2 177.89 18.2C176.758 18.2 175.981 18.1473 175.559 18.0419C175.52 19.0956 175.46 20.1823 175.381 21.3019C175.46 21.2887 175.572 21.2821 175.717 21.2821C175.928 21.2821 176.178 21.3545 176.468 21.4994C176.507 21.5521 176.527 21.6641 176.527 21.8353C176.527 22.1119 176.475 22.5202 176.369 23.0603C176.264 23.5871 176.165 23.9164 176.073 24.0481C175.77 24.1798 175.171 24.2457 174.275 24.2457C172.931 24.2457 172.128 24.0613 171.865 23.6925C171.785 23.6003 171.746 23.2117 171.746 22.5268Z" fill="black"/>
<path d="M155.318 19.5435C155.318 18.8981 155.457 18.2658 155.733 17.6468C156.023 17.0145 156.425 16.435 156.938 15.9081C157.452 15.3813 158.124 14.9532 158.954 14.6239C159.797 14.2946 160.725 14.13 161.739 14.13C162.056 14.13 162.299 14.1366 162.47 14.1497L162.628 13.6558C163.024 13.5768 163.406 13.5373 163.774 13.5373C164.499 13.5373 165.203 13.7546 165.888 14.1893C165.967 14.8215 166.007 15.3022 166.007 15.6315C166.007 16.6062 165.816 17.1726 165.434 17.3307C165.065 17.4755 164.71 17.548 164.367 17.548C163.735 17.548 162.958 17.4229 162.036 17.1726L162.154 16.4021C161.891 16.3757 161.68 16.3625 161.522 16.3625C160.561 16.3625 159.724 16.6326 159.013 17.1726C158.315 17.6995 157.966 18.4634 157.966 19.4644C157.966 20.3074 158.209 20.9331 158.697 21.3414C159.197 21.7497 159.79 21.9538 160.475 21.9538C160.883 21.9538 161.417 21.8682 162.075 21.697L162.016 20.9857C162.675 20.5511 163.478 20.3338 164.426 20.3338C164.69 20.3338 164.999 20.3667 165.355 20.4325C165.842 21.0384 166.086 21.7365 166.086 22.5268C166.086 22.8561 166.04 23.3764 165.948 24.0876C165.394 24.5355 164.631 24.7594 163.656 24.7594C163.392 24.7594 163.089 24.7462 162.747 24.7199L162.53 24.4037C162.148 24.4433 161.779 24.463 161.423 24.463C159.632 24.463 158.163 23.9823 157.017 23.0207C155.885 22.046 155.318 20.887 155.318 19.5435Z" fill="black"/>
<path d="M148.255 22.5861C148.255 21.9143 148.294 21.5324 148.373 21.4402C148.531 21.348 148.729 21.2887 148.966 21.2624C149.124 21.236 149.467 21.2228 149.993 21.2228C149.914 20.393 149.875 19.4908 149.875 18.5161C149.875 17.4492 149.941 16.7709 150.072 16.4811C149.427 16.4811 148.999 16.4548 148.788 16.4021C148.801 16.0464 148.847 15.6711 148.927 15.2759C148.953 15.1047 149.032 14.7688 149.164 14.2683C149.651 14.1761 150.468 14.13 151.613 14.13C152.074 14.13 152.496 14.1563 152.878 14.209C153.273 14.2617 153.569 14.3276 153.767 14.4066C153.978 14.4725 154.083 14.5383 154.083 14.6042C154.109 14.6042 154.123 14.8413 154.123 15.3154C154.123 16.0662 154.057 16.5404 153.925 16.738C153.872 16.817 153.714 16.8565 153.451 16.8565C152.964 16.8565 152.654 16.8236 152.522 16.7577C152.377 17.6797 152.305 18.8783 152.305 20.3535C152.305 20.9594 152.325 21.2755 152.364 21.3019C152.443 21.2887 152.555 21.2821 152.7 21.2821C153.174 21.2821 153.556 21.3546 153.846 21.4994C153.886 21.5521 153.905 21.6707 153.905 21.8551C153.905 22.1844 153.859 22.5795 153.767 23.0405C153.675 23.5015 153.543 23.8176 153.372 23.9889C153.214 24.1469 152.7 24.2259 151.831 24.2259C149.763 24.2259 148.617 24.035 148.393 23.653C148.301 23.4818 148.255 23.1261 148.255 22.5861ZM149.835 10.2773C149.835 9.90854 150.033 9.72413 150.428 9.72413C150.757 9.72413 151.113 9.82292 151.495 10.0205C151.772 9.74389 152.14 9.60559 152.601 9.60559C152.891 9.60559 153.148 9.70438 153.372 9.90195C153.596 10.0995 153.708 10.3695 153.708 10.712C153.708 10.8832 153.668 11.0479 153.589 11.2059C153.523 11.364 153.451 11.4957 153.372 11.6011C153.293 11.7064 153.161 11.8316 152.977 11.9765C152.792 12.1082 152.647 12.207 152.542 12.2728C152.45 12.3255 152.279 12.4243 152.028 12.5692C151.778 12.7009 151.62 12.7865 151.554 12.826C151.041 12.444 150.626 12.016 150.31 11.5418C149.993 11.0545 149.835 10.633 149.835 10.2773Z" fill="black"/>
<path d="M134.057 22.8429C134.057 22.0263 134.234 21.5192 134.59 21.3216C134.919 21.2031 135.367 21.1438 135.933 21.1438C136.013 21.1438 136.118 21.157 136.25 21.1833C136.25 20.8014 136.236 20.1889 136.21 19.3459C136.184 18.4898 136.171 17.8444 136.171 17.4097C136.118 17.4097 135.901 17.4295 135.519 17.469C135.137 17.4953 134.913 17.5085 134.847 17.5085C134.794 17.5085 134.715 17.4953 134.61 17.469C134.504 17.4426 134.425 17.4295 134.373 17.4295C134.32 17.3768 134.294 17.2385 134.294 17.0146C134.294 16.6589 134.346 16.2177 134.452 15.6908C134.557 15.1508 134.656 14.8215 134.748 14.703C135.13 14.4659 135.828 14.3473 136.842 14.3473C137.646 14.3473 138.166 14.3934 138.403 14.4856C138.653 14.5647 138.779 14.7688 138.779 15.0981C138.779 15.4932 138.746 15.8884 138.68 16.2835C139.918 14.861 141.255 14.1497 142.69 14.1497C144.956 14.1497 146.089 15.7435 146.089 18.931C146.089 19.5764 146.049 20.2021 145.97 20.8079C145.97 20.7816 146.029 20.7684 146.148 20.7684C146.346 20.7684 146.655 20.8014 147.077 20.8672C147.195 20.9989 147.254 21.427 147.254 22.1514C147.254 23.0603 147.189 23.6201 147.057 23.8308C146.069 24.0942 145.213 24.2259 144.488 24.2259C143.975 24.2259 143.382 24.1074 142.71 23.8703C142.618 23.8045 142.519 23.574 142.414 23.1788C142.308 22.7705 142.256 22.4214 142.256 22.1317C142.256 21.697 142.374 21.3216 142.611 21.0055C142.756 20.9133 142.947 20.8672 143.184 20.8672C143.369 20.8672 143.547 20.9001 143.718 20.966C143.718 20.9265 143.718 20.7553 143.718 20.4523C143.731 20.1494 143.738 19.9584 143.738 19.8793C143.738 19.0495 143.507 18.3251 143.046 17.7061C142.598 17.0738 142.032 16.7577 141.347 16.7577C140.754 16.7577 140.208 17.0014 139.707 17.4887C139.22 17.9629 138.976 18.7137 138.976 19.741C138.976 20.1099 138.996 20.5906 139.035 21.1833C139.193 21.0911 139.398 21.045 139.648 21.045C139.885 21.045 140.03 21.078 140.083 21.1438C140.214 21.1438 140.28 21.4072 140.28 21.9341C140.28 22.0526 140.214 22.5927 140.083 23.5542C139.134 24.0152 137.929 24.2457 136.467 24.2457C135.268 24.2457 134.524 24.0613 134.234 23.6925C134.116 23.5476 134.057 23.2644 134.057 22.8429Z" fill="black"/>
<path d="M123.581 20.0177C123.581 18.3844 124.068 17.0014 125.043 15.8686C126.017 14.7227 127.282 14.1497 128.836 14.1497C129.547 14.1497 130.16 14.2815 130.674 14.5449C131.2 14.7952 131.602 15.1508 131.879 15.6118C132.169 16.0596 132.373 16.5535 132.491 17.0936C132.623 17.6204 132.689 18.2066 132.689 18.852C132.689 20.6696 132.221 22.0526 131.286 23.001C130.364 23.9493 129.159 24.4235 127.67 24.4235C126.88 24.4235 126.202 24.2918 125.635 24.0284C125.069 23.7518 124.641 23.3896 124.351 22.9417C124.075 22.4807 123.877 22.0131 123.759 21.539C123.64 21.0648 123.581 20.5577 123.581 20.0177ZM126.406 19.8596C126.406 20.5182 126.61 21.0845 127.018 21.5587C127.427 22.0329 127.914 22.27 128.481 22.27C128.968 22.27 129.389 22.0724 129.745 21.6773C130.101 21.2689 130.344 20.8409 130.476 20.393C130.608 19.932 130.674 19.504 130.674 19.1088C130.674 18.5161 130.496 18.0024 130.14 17.5678C129.784 17.1199 129.337 16.896 128.797 16.896C128.138 16.896 127.572 17.2121 127.098 17.8444C126.637 18.4634 126.406 19.1352 126.406 19.8596Z" fill="black"/>
<path d="M113.917 15.592C113.917 15.052 113.956 14.67 114.035 14.4461C114.786 14.2222 115.517 14.1102 116.228 14.1102C117.084 14.1102 117.743 14.288 118.204 14.6437C118.191 14.8676 118.184 15.2035 118.184 15.6513L118.263 15.4932C118.303 15.3879 118.375 15.2627 118.481 15.1178C118.599 14.9598 118.737 14.8083 118.896 14.6634C119.054 14.5054 119.277 14.3737 119.567 14.2683C119.857 14.1629 120.18 14.1102 120.535 14.1102C121.536 14.1102 122.386 14.5383 123.084 15.3944C122.992 15.974 122.761 16.4152 122.393 16.7182C122.024 17.0211 121.655 17.1858 121.286 17.2121C120.799 16.8697 120.331 16.6984 119.883 16.6984C118.579 16.6984 117.927 17.5282 117.927 19.1878C117.927 19.7542 118 20.3733 118.145 21.045C118.171 20.9792 118.355 20.9462 118.698 20.9462C119.093 20.9462 119.337 20.9923 119.429 21.0845C119.587 21.3348 119.666 21.7431 119.666 22.3095C119.666 23.1656 119.515 23.7254 119.212 23.9888C118.54 24.1337 117.73 24.2062 116.781 24.2062C115.227 24.2062 114.325 24.0613 114.075 23.7715C114.035 23.6135 114.015 23.2117 114.015 22.5663C114.015 21.6443 114.055 21.1504 114.134 21.0845C114.226 20.966 114.483 20.9067 114.905 20.9067C115.208 20.9067 115.431 20.9528 115.576 21.045C115.458 20.7421 115.398 19.7213 115.398 17.9826C115.398 17.4031 115.418 17.0738 115.458 16.9948C115.3 17.0211 115.155 17.0343 115.023 17.0343C114.549 17.0343 114.22 16.9158 114.035 16.6787C113.956 16.4811 113.917 16.1189 113.917 15.592Z" fill="black"/>
<path d="M105.067 14.8413C105.067 14.5515 105.107 14.3671 105.186 14.2881C105.423 14.2485 105.732 14.2288 106.114 14.2288H106.549V10.5144C107.234 10.4617 107.675 10.4354 107.873 10.4354C108.07 10.4354 108.472 10.4617 109.078 10.5144L109.275 14.2683C110.724 14.3342 111.554 14.4264 111.765 14.5449C111.962 14.8874 112.061 15.4142 112.061 16.1255C112.061 16.4153 112.022 16.5997 111.943 16.6787C111.534 16.7314 111.067 16.7577 110.54 16.7577C110.369 16.7577 110.112 16.7577 109.769 16.7577C109.427 16.7445 109.17 16.738 108.999 16.738C108.999 17.1726 108.992 17.7192 108.979 18.3778C108.979 19.0364 108.979 19.504 108.979 19.7806C108.979 20.8079 109.045 21.4402 109.177 21.6773C109.321 21.9012 109.703 22.0131 110.322 22.0131C110.56 22.0131 110.757 22 110.915 21.9736L110.797 21.5587L112.614 21.1438C112.746 21.5258 112.812 21.9736 112.812 22.4873C112.812 23.3435 112.726 23.8835 112.555 24.1074C111.264 24.2918 110.191 24.384 109.335 24.384C108.215 24.384 107.477 24.2259 107.122 23.9098C106.964 23.7649 106.839 23.574 106.746 23.3369C106.654 23.0998 106.588 22.7639 106.549 22.3293C106.522 21.8814 106.503 21.4402 106.49 21.0055C106.476 20.5577 106.457 19.9123 106.43 19.0693C106.404 18.2263 106.371 17.4295 106.331 16.6787C105.91 16.6392 105.587 16.5536 105.363 16.4218C105.166 16.0794 105.067 15.5525 105.067 14.8413Z" fill="black"/>
<path d="M93.4033 19.5435C93.4033 18.8981 93.5416 18.2658 93.8182 17.6468C94.1079 17.0145 94.5097 16.435 95.0234 15.9081C95.537 15.3813 96.2088 14.9532 97.0386 14.6239C97.8816 14.2946 98.8102 14.13 99.8244 14.13C100.14 14.13 100.384 14.1366 100.555 14.1497L100.713 13.6558C101.109 13.5768 101.491 13.5373 101.859 13.5373C102.584 13.5373 103.288 13.7546 103.973 14.1893C104.052 14.8215 104.092 15.3022 104.092 15.6315C104.092 16.6062 103.901 17.1726 103.519 17.3307C103.15 17.4755 102.795 17.548 102.452 17.548C101.82 17.548 101.043 17.4229 100.121 17.1726L100.239 16.4021C99.9758 16.3757 99.7651 16.3625 99.607 16.3625C98.6455 16.3625 97.8091 16.6326 97.0979 17.1726C96.3998 17.6995 96.0507 18.4634 96.0507 19.4644C96.0507 20.3074 96.2944 20.9331 96.7818 21.3414C97.2823 21.7497 97.875 21.9538 98.5599 21.9538C98.9682 21.9538 99.5017 21.8682 100.16 21.697L100.101 20.9857C100.76 20.5511 101.563 20.3338 102.511 20.3338C102.775 20.3338 103.084 20.3667 103.44 20.4325C103.927 21.0384 104.171 21.7365 104.171 22.5268C104.171 22.8561 104.125 23.3764 104.033 24.0876C103.479 24.5355 102.716 24.7594 101.741 24.7594C101.477 24.7594 101.174 24.7462 100.832 24.7199L100.615 24.4037C100.233 24.4433 99.8639 24.463 99.5083 24.463C97.7169 24.463 96.2483 23.9823 95.1024 23.0207C93.9696 22.046 93.4033 20.887 93.4033 19.5435Z" fill="black"/>
<path d="M82.367 20.0967C82.367 18.6083 82.9004 17.2451 83.9673 16.0069C85.0474 14.7688 86.2526 14.1497 87.5829 14.1497C88.3995 14.1497 89.0976 14.4 89.6772 14.9005C90.2567 15.401 90.5465 16.053 90.5465 16.8565C90.5465 17.7917 90.1579 18.5951 89.3808 19.2669C88.6169 19.9255 87.6027 20.2547 86.3382 20.2547C85.6138 20.2547 85.1067 20.1428 84.8169 19.9189C84.8301 20.5511 85.054 21.0582 85.4886 21.4402C85.9233 21.809 86.4238 21.9934 86.9902 21.9934C87.7278 21.9934 88.3271 21.7036 88.7881 21.1241C88.7881 21.0187 88.8079 20.9067 88.8474 20.7882C89.4269 20.314 90.0526 20.0769 90.7243 20.0769C90.856 20.0769 90.9548 20.0835 91.0207 20.0967C91.89 20.5709 92.4234 21.348 92.621 22.428C92.6078 22.5334 92.5551 22.6454 92.4629 22.7639C92.3839 22.8825 92.2983 22.9878 92.2061 23.08C92.1139 23.1591 91.9822 23.2578 91.811 23.3764C91.6397 23.4818 91.5014 23.5608 91.3961 23.6135C91.3039 23.6662 91.159 23.7452 90.9614 23.8506C90.777 23.9559 90.6716 24.0152 90.6453 24.0284C90.5663 24.0284 90.5004 24.0218 90.4477 24.0086C90.395 23.9823 90.3423 23.9493 90.2897 23.9098C90.2501 23.8571 90.2238 23.8242 90.2106 23.811C90.1975 23.7847 90.1711 23.732 90.1316 23.653C90.0921 23.5608 90.0657 23.5081 90.0526 23.4949C89.0779 24.1403 88.0307 24.463 86.9112 24.463C85.6599 24.463 84.5864 24.0613 83.6907 23.2578C82.8082 22.4544 82.367 21.4007 82.367 20.0967ZM85.4491 17.7851C85.4491 18.2197 85.7652 18.4371 86.3975 18.4371C86.8716 18.4371 87.3261 18.3251 87.7607 18.1012C88.1954 17.8773 88.4127 17.6007 88.4127 17.2714C88.4127 17.0475 88.3337 16.817 88.1756 16.5799C88.0307 16.3296 87.7937 16.2045 87.4644 16.2045C87.056 16.2045 86.6148 16.3691 86.1406 16.6984C85.6796 17.0277 85.4491 17.3899 85.4491 17.7851Z" fill="black"/>
<path d="M76.0574 22.4478C76.0574 21.8814 76.1035 21.5521 76.1957 21.4599C76.5381 21.3019 76.9201 21.2228 77.3416 21.2228C77.1967 20.3535 77.1242 19.0232 77.1242 17.2319C77.1242 15.1244 77.1901 13.2936 77.3218 11.7394C76.9398 11.7394 76.6435 11.713 76.4327 11.6603C76.4064 11.3969 76.3932 11.1862 76.3932 11.0281C76.3932 10.4486 76.5315 9.94804 76.8081 9.52655C77.3745 9.39484 77.9079 9.32898 78.4085 9.32898C79.0407 9.32898 79.5346 9.39484 79.8903 9.52655C80.022 10.7647 80.0878 12.0752 80.0878 13.4582C80.0878 14.4329 80.0417 15.8225 79.9495 17.627C79.8705 19.4315 79.8244 20.6565 79.8112 21.3019C79.8771 21.2887 79.9825 21.2821 80.1273 21.2821C80.5225 21.2821 80.8452 21.3546 81.0954 21.4994C81.1481 21.6048 81.1745 21.7629 81.1745 21.9736C81.1745 22.2897 81.1218 22.6717 81.0164 23.1195C80.911 23.5542 80.8057 23.8637 80.7003 24.0481C80.5291 24.1798 79.8771 24.2457 78.7443 24.2457C78.1253 24.2457 77.5655 24.193 77.065 24.0876C76.5776 23.9823 76.2879 23.8505 76.1957 23.6925C76.1035 23.5344 76.0574 23.1195 76.0574 22.4478Z" fill="black"/>
<path d="M62.7127 22.1909C62.7127 21.9802 62.8181 21.6377 63.0288 21.1636C63.2659 21.045 63.5293 20.9857 63.8191 20.9857C63.9508 20.9857 64.0562 21.0055 64.1352 21.045C63.9772 19.8728 63.8981 18.6807 63.8981 17.469C63.8981 15.6908 64.0364 14.2288 64.313 13.0829C64.0101 13.1487 63.7664 13.1816 63.582 13.1816C63.3449 13.1816 63.1605 13.1355 63.0288 13.0433C62.8444 12.7799 62.7522 12.3716 62.7522 11.8184C62.7522 11.4759 62.8774 11.1335 63.1276 10.791C63.5491 10.5934 64.3196 10.442 65.4392 10.3366C66.5588 10.2181 67.6389 10.1588 68.6794 10.1588C71.103 10.1588 73.0523 10.409 74.5275 10.9096C74.6593 11.5681 74.7251 12.0752 74.7251 12.4309C74.7251 13.0499 74.5736 13.557 74.2707 13.9522C73.9414 14.0312 73.6582 14.0707 73.4211 14.0707C72.9996 14.0707 72.4596 13.8534 71.801 13.4187L71.8603 12.7667C71.6101 12.5955 70.9251 12.5099 69.8056 12.5099C69.4104 12.5099 68.9033 12.5297 68.2843 12.5692C67.6652 12.6087 67.3491 12.6482 67.3359 12.6877C67.3886 13.1619 67.4149 13.5109 67.4149 13.7348C67.4149 14.9071 67.3293 15.7106 67.1581 16.1452C68.4489 16.1452 69.1009 16.1255 69.1141 16.086C69.1009 16.0464 69.0943 15.9872 69.0943 15.9081C69.0943 15.7633 69.1536 15.5854 69.2721 15.3747C69.3511 15.3088 69.5685 15.2759 69.9241 15.2759C70.4773 15.2759 70.8593 15.322 71.07 15.4142C71.3335 15.8489 71.4652 16.4745 71.4652 17.2911C71.4652 18.0287 71.3269 18.5359 71.0503 18.8125C70.9449 18.9047 70.6354 18.9508 70.1217 18.9508C69.608 18.9508 69.3116 18.9047 69.2326 18.8125C69.1141 18.6544 69.0548 18.4568 69.0548 18.2197L67.0593 18.3185C67.0593 19.0956 66.9869 20.1757 66.842 21.5587C67.0527 21.7431 67.4808 21.888 68.1262 21.9934C68.7716 22.0856 69.305 22.1317 69.7265 22.1317C70.0426 22.1317 70.4312 22.0987 70.8922 22.0329C71.3664 21.9539 71.6891 21.8682 71.8603 21.776L71.801 21.124C72.4596 20.6894 73.0062 20.4721 73.4409 20.4721C73.678 20.4721 73.9546 20.5116 74.2707 20.5906C74.5736 20.9857 74.7251 21.4929 74.7251 22.1119C74.7251 22.4675 74.6593 22.9746 74.5275 23.6332C73.5397 24.1996 71.7484 24.4828 69.1536 24.4828C67.8891 24.4828 66.6839 24.4103 65.538 24.2655C64.3921 24.1337 63.5886 23.9625 63.1276 23.7518C62.9696 23.5542 62.8576 23.3566 62.7917 23.159C62.7391 22.9615 62.7127 22.6388 62.7127 22.1909Z" fill="#0BA5EC"/>
</svg>
